<?xml version="1.0" encoding="utf-8" standalone="no"?>
<!DOCTYPE svg PUBLIC "-//W3C//DTD SVG 1.1//EN"
  "http://www.w3.org/Graphics/SVG/1.1/DTD/svg11.dtd">
<svg xmlns:xlink="http://www.w3.org/1999/xlink" width="757.19952pt" height="332.39952pt" viewBox="0 0 757.19952 332.39952" xmlns="http://www.w3.org/2000/svg" version="1.1">
 <metadata>
  <rdf:RDF xmlns:dc="http://purl.org/dc/elements/1.1/" xmlns:cc="http://creativecommons.org/ns#" xmlns:rdf="http://www.w3.org/1999/02/22-rdf-syntax-ns#">
   <cc:Work>
    <dc:type rdf:resource="http://purl.org/dc/dcmitype/StillImage"/>
    <dc:date>2026-09-18T15:08:36.108316</dc:date>
    <dc:format>image/svg+xml</dc:format>
    <dc:creator>
     <cc:Agent>
      <dc:title>Matplotlib v3.11.2, https://matplotlib.org/</dc:title>
     </cc:Agent>
    </dc:creator>
   </cc:Work>
  </rdf:RDF>
 </metadata>
 <defs>
  <style type="text/css">*{stroke-linejoin: round; stroke-linecap: butt}</style>
 </defs>
 <g id="figure_1">
  <g id="patch_1">
   <path d="M 0 332.39952 
L 757.19952 332.39952 
L 757.19952 0 
L 0 0 
z
" style="fill: #ffffff"/>
  </g>
  <g id="axes_1">
   <g id="patch_2">
    <path d="M 44.103906 294.198739 
L 374.85576 294.198739 
L 374.85576 40.318605 
L 44.103906 40.318605 
z
" style="fill: #ffffff"/>
   </g>
   <g id="patch_3">
    <path d="M 59.138081 294.198739 
L 77.879872 294.198739 
L 77.879872 177.918815 
L 59.138081 177.918815 
z
" clip-path="url(#pa50a6fd394)" style="fill: #1f77b4"/>
   </g>
   <g id="patch_4">
    <path d="M 140.624126 294.198739 
L 159.365916 294.198739 
L 159.365916 171.435645 
L 140.624126 171.435645 
z
" clip-path="url(#pa50a6fd394)" style="fill: #1f77b4"/>
   </g>
   <g id="patch_5">
    <path d="M 222.11017 294.198739 
L 240.85196 294.198739 
L 240.85196 109.903642 
L 222.11017 109.903642 
z
" clip-path="url(#pa50a6fd394)" style="fill: #1f77b4"/>
   </g>
   <g id="patch_6">
    <path d="M 303.596214 294.198739 
L 322.338004 294.198739 
L 322.338004 71.798576 
L 303.596214 71.798576 
z
" clip-path="url(#pa50a6fd394)" style="fill: #1f77b4"/>
   </g>
   <g id="patch_7">
    <path d="M 77.879872 294.198739 
L 96.621662 294.198739 
L 96.621662 163.134334 
L 77.879872 163.134334 
z
" clip-path="url(#pa50a6fd394)" style="fill: #ff7f0e"/>
   </g>
   <g id="patch_8">
    <path d="M 159.365916 294.198739 
L 178.107706 294.198739 
L 178.107706 135.013475 
L 159.365916 135.013475 
z
" clip-path="url(#pa50a6fd394)" style="fill: #ff7f0e"/>
   </g>
   <g id="patch_9">
    <path d="M 240.85196 294.198739 
L 259.59375 294.198739 
L 259.59375 110.028115 
L 240.85196 110.028115 
z
" clip-path="url(#pa50a6fd394)" style="fill: #ff7f0e"/>
   </g>
   <g id="patch_10">
    <path d="M 322.338004 294.198739 
L 341.079795 294.198739 
L 341.079795 52.408135 
L 322.338004 52.408135 
z
" clip-path="url(#pa50a6fd394)" style="fill: #ff7f0e"/>
   </g>
   <g id="patch_11">
    <path d="M 96.621662 294.198739 
L 115.363452 294.198739 
L 115.363452 187.39573 
L 96.621662 187.39573 
z
" clip-path="url(#pa50a6fd394)" style="fill: #2ca02c"/>
   </g>
   <g id="patch_12">
    <path d="M 178.107706 294.198739 
L 196.849496 294.198739 
L 196.849496 89.167682 
L 178.107706 89.167682 
z
" clip-path="url(#pa50a6fd394)" style="fill: #2ca02c"/>
   </g>
   <g id="patch_13">
    <path d="M 259.59375 294.198739 
L 278.335541 294.198739 
L 278.335541 104.071281 
L 259.59375 104.071281 
z
" clip-path="url(#pa50a6fd394)" style="fill: #2ca02c"/>
   </g>
   <g id="patch_14">
    <path d="M 341.079795 294.198739 
L 359.821585 294.198739 
L 359.821585 57.498944 
L 341.079795 57.498944 
z
" clip-path="url(#pa50a6fd394)" style="fill: #2ca02c"/>
   </g>
   <g id="matplotlib.axis_1">
    <g id="xtick_1">
     <g id="line2d_1">
      <defs>
       <path id="m9b9e957fc7" d="M 0 0 
L 0 3.5 
" style="stroke: #000000; stroke-width: 0.8"/>
      </defs>
      <g>
       <use xlink:href="#m9b9e957fc7" x="87.250767" y="294.198739" style="stroke: #000000; stroke-width: 0.8"/>
      </g>
     </g>
     <g id="text_1">
      <!-- 8 -->
      <g transform="translate(84.069517 308.796395) scale(0.1 -0.1)">
       <defs>
        <path id="DejaVuSans-1b" d="M 2034 2216 
Q 1584 2216 1326 1975 
Q 1069 1734 1069 1313 
Q 1069 891 1326 650 
Q 1584 409 2034 409 
Q 2484 409 2743 651 
Q 3003 894 3003 1313 
Q 3003 1734 2745 1975 
Q 2488 2216 2034 2216 
z
M 1403 2484 
Q 997 2584 770 2862 
Q 544 3141 544 3541 
Q 544 4100 942 4425 
Q 1341 4750 2034 4750 
Q 2731 4750 3128 4425 
Q 3525 4100 3525 3541 
Q 3525 3141 3298 2862 
Q 3072 2584 2669 2484 
Q 3125 2378 3379 2068 
Q 3634 1759 3634 1313 
Q 3634 634 3220 271 
Q 2806 -91 2034 -91 
Q 1263 -91 848 271 
Q 434 634 434 1313 
Q 434 1759 690 2068 
Q 947 2378 1403 2484 
z
M 1172 3481 
Q 1172 3119 1398 2916 
Q 1625 2713 2034 2713 
Q 2441 2713 2670 2916 
Q 2900 3119 2900 3481 
Q 2900 3844 2670 4047 
Q 2441 4250 2034 4250 
Q 1625 4250 1398 4047 
Q 1172 3844 1172 3481 
z
" transform="scale(0.015625)"/>
       </defs>
       <use xlink:href="#DejaVuSans-1b"/>
      </g>
     </g>
    </g>
    <g id="xtick_2">
     <g id="line2d_2">
      <g>
       <use xlink:href="#m9b9e957fc7" x="168.736811" y="294.198739" style="stroke: #000000; stroke-width: 0.8"/>
      </g>
     </g>
     <g id="text_2">
      <!-- 12 -->
      <g transform="translate(162.374311 308.796395) scale(0.1 -0.1)">
       <defs>
        <path id="DejaVuSans-14" d="M 794 531 
L 1825 531 
L 1825 4091 
L 703 3866 
L 703 4441 
L 1819 4666 
L 2450 4666 
L 2450 531 
L 3481 531 
L 3481 0 
L 794 0 
L 794 531 
z
" transform="scale(0.015625)"/>
        <path id="DejaVuSans-15" d="M 1228 531 
L 3431 531 
L 3431 0 
L 469 0 
L 469 531 
Q 828 903 1448 1529 
Q 2069 2156 2228 2338 
Q 2531 2678 2651 2914 
Q 2772 3150 2772 3378 
Q 2772 3750 2511 3984 
Q 2250 4219 1831 4219 
Q 1534 4219 1204 4116 
Q 875 4013 500 3803 
L 500 4441 
Q 881 4594 1212 4672 
Q 1544 4750 1819 4750 
Q 2544 4750 2975 4387 
Q 3406 4025 3406 3419 
Q 3406 3131 3298 2873 
Q 3191 2616 2906 2266 
Q 2828 2175 2409 1742 
Q 1991 1309 1228 531 
z
" transform="scale(0.015625)"/>
       </defs>
       <use xlink:href="#DejaVuSans-14"/>
       <use xlink:href="#DejaVuSans-15" transform="translate(63.625 0)"/>
      </g>
     </g>
    </g>
    <g id="xtick_3">
     <g id="line2d_3">
      <g>
       <use xlink:href="#m9b9e957fc7" x="250.222855" y="294.198739" style="stroke: #000000; stroke-width: 0.8"/>
      </g>
     </g>
     <g id="text_3">
      <!-- 16 -->
      <g transform="translate(243.860355 308.796395) scale(0.1 -0.1)">
       <defs>
        <path id="DejaVuSans-19" d="M 2113 2584 
Q 1688 2584 1439 2293 
Q 1191 2003 1191 1497 
Q 1191 994 1439 701 
Q 1688 409 2113 409 
Q 2538 409 2786 701 
Q 3034 994 3034 1497 
Q 3034 2003 2786 2293 
Q 2538 2584 2113 2584 
z
M 3366 4563 
L 3366 3988 
Q 3128 4100 2886 4159 
Q 2644 4219 2406 4219 
Q 1781 4219 1451 3797 
Q 1122 3375 1075 2522 
Q 1259 2794 1537 2939 
Q 1816 3084 2150 3084 
Q 2853 3084 3261 2657 
Q 3669 2231 3669 1497 
Q 3669 778 3244 343 
Q 2819 -91 2113 -91 
Q 1303 -91 875 529 
Q 447 1150 447 2328 
Q 447 3434 972 4092 
Q 1497 4750 2381 4750 
Q 2619 4750 2861 4703 
Q 3103 4656 3366 4563 
z
" transform="scale(0.015625)"/>
       </defs>
       <use xlink:href="#DejaVuSans-14"/>
       <use xlink:href="#DejaVuSans-19" transform="translate(63.625 0)"/>
      </g>
     </g>
    </g>
    <g id="xtick_4">
     <g id="line2d_4">
      <g>
       <use xlink:href="#m9b9e957fc7" x="331.7089" y="294.198739" style="stroke: #000000; stroke-width: 0.8"/>
      </g>
     </g>
     <g id="text_4">
      <!-- 24 -->
      <g transform="translate(325.3464 308.796395) scale(0.1 -0.1)">
       <defs>
        <path id="DejaVuSans-17" d="M 2419 4116 
L 825 1625 
L 2419 1625 
L 2419 4116 
z
M 2253 4666 
L 3047 4666 
L 3047 1625 
L 3713 1625 
L 3713 1100 
L 3047 1100 
L 3047 0 
L 2419 0 
L 2419 1100 
L 313 1100 
L 313 1709 
L 2253 4666 
z
" transform="scale(0.015625)"/>
       </defs>
       <use xlink:href="#DejaVuSans-15"/>
       <use xlink:href="#DejaVuSans-17" transform="translate(63.625 0)"/>
      </g>
     </g>
    </g>
    <g id="text_5">
     <!-- toroidal = poloidal resolution -->
     <g transform="translate(136.962646 322.797176) scale(0.1 -0.1)">
      <defs>
       <path id="DejaVuSans-57" d="M 1172 4494 
L 1172 3500 
L 2356 3500 
L 2356 3053 
L 1172 3053 
L 1172 1153 
Q 1172 725 1289 603 
Q 1406 481 1766 481 
L 2356 481 
L 2356 0 
L 1766 0 
Q 1100 0 847 248 
Q 594 497 594 1153 
L 594 3053 
L 172 3053 
L 172 3500 
L 594 3500 
L 594 4494 
L 1172 4494 
z
" transform="scale(0.015625)"/>
       <path id="DejaVuSans-52" d="M 1959 3097 
Q 1497 3097 1228 2736 
Q 959 2375 959 1747 
Q 959 1119 1226 758 
Q 1494 397 1959 397 
Q 2419 397 2687 759 
Q 2956 1122 2956 1747 
Q 2956 2369 2687 2733 
Q 2419 3097 1959 3097 
z
M 1959 3584 
Q 2709 3584 3137 3096 
Q 3566 2609 3566 1747 
Q 3566 888 3137 398 
Q 2709 -91 1959 -91 
Q 1206 -91 779 398 
Q 353 888 353 1747 
Q 353 2609 779 3096 
Q 1206 3584 1959 3584 
z
" transform="scale(0.015625)"/>
       <path id="DejaVuSans-55" d="M 2631 2963 
Q 2534 3019 2420 3045 
Q 2306 3072 2169 3072 
Q 1681 3072 1420 2755 
Q 1159 2438 1159 1844 
L 1159 0 
L 581 0 
L 581 3500 
L 1159 3500 
L 1159 2956 
Q 1341 3275 1631 3429 
Q 1922 3584 2338 3584 
Q 2397 3584 2469 3576 
Q 2541 3569 2628 3553 
L 2631 2963 
z
" transform="scale(0.015625)"/>
       <path id="DejaVuSans-4c" d="M 603 3500 
L 1178 3500 
L 1178 0 
L 603 0 
L 603 3500 
z
M 603 4863 
L 1178 4863 
L 1178 4134 
L 603 4134 
L 603 4863 
z
" transform="scale(0.015625)"/>
       <path id="DejaVuSans-47" d="M 2906 2969 
L 2906 4863 
L 3481 4863 
L 3481 0 
L 2906 0 
L 2906 525 
Q 2725 213 2448 61 
Q 2172 -91 1784 -91 
Q 1150 -91 751 415 
Q 353 922 353 1747 
Q 353 2572 751 3078 
Q 1150 3584 1784 3584 
Q 2172 3584 2448 3432 
Q 2725 3281 2906 2969 
z
M 947 1747 
Q 947 1113 1208 752 
Q 1469 391 1925 391 
Q 2381 391 2643 752 
Q 2906 1113 2906 1747 
Q 2906 2381 2643 2742 
Q 2381 3103 1925 3103 
Q 1469 3103 1208 2742 
Q 947 2381 947 1747 
z
" transform="scale(0.015625)"/>
       <path id="DejaVuSans-44" d="M 2194 1759 
Q 1497 1759 1228 1600 
Q 959 1441 959 1056 
Q 959 750 1161 570 
Q 1363 391 1709 391 
Q 2188 391 2477 730 
Q 2766 1069 2766 1631 
L 2766 1759 
L 2194 1759 
z
M 3341 1997 
L 3341 0 
L 2766 0 
L 2766 531 
Q 2569 213 2275 61 
Q 1981 -91 1556 -91 
Q 1019 -91 701 211 
Q 384 513 384 1019 
Q 384 1609 779 1909 
Q 1175 2209 1959 2209 
L 2766 2209 
L 2766 2266 
Q 2766 2663 2505 2880 
Q 2244 3097 1772 3097 
Q 1472 3097 1187 3025 
Q 903 2953 641 2809 
L 641 3341 
Q 956 3463 1253 3523 
Q 1550 3584 1831 3584 
Q 2591 3584 2966 3190 
Q 3341 2797 3341 1997 
z
" transform="scale(0.015625)"/>
       <path id="DejaVuSans-4f" d="M 603 4863 
L 1178 4863 
L 1178 0 
L 603 0 
L 603 4863 
z
" transform="scale(0.015625)"/>
       <path id="DejaVuSans-3" transform="scale(0.015625)"/>
       <path id="DejaVuSans-20" d="M 678 2906 
L 4684 2906 
L 4684 2381 
L 678 2381 
L 678 2906 
z
M 678 1631 
L 4684 1631 
L 4684 1100 
L 678 1100 
L 678 1631 
z
" transform="scale(0.015625)"/>
       <path id="DejaVuSans-53" d="M 1159 525 
L 1159 -1331 
L 581 -1331 
L 581 3500 
L 1159 3500 
L 1159 2969 
Q 1341 3281 1617 3432 
Q 1894 3584 2278 3584 
Q 2916 3584 3314 3078 
Q 3713 2572 3713 1747 
Q 3713 922 3314 415 
Q 2916 -91 2278 -91 
Q 1894 -91 1617 61 
Q 1341 213 1159 525 
z
M 3116 1747 
Q 3116 2381 2855 2742 
Q 2594 3103 2138 3103 
Q 1681 3103 1420 2742 
Q 1159 2381 1159 1747 
Q 1159 1113 1420 752 
Q 1681 391 2138 391 
Q 2594 391 2855 752 
Q 3116 1113 3116 1747 
z
" transform="scale(0.015625)"/>
       <path id="DejaVuSans-48" d="M 3597 1894 
L 3597 1613 
L 953 1613 
Q 991 1019 1311 708 
Q 1631 397 2203 397 
Q 2534 397 2845 478 
Q 3156 559 3463 722 
L 3463 178 
Q 3153 47 2828 -22 
Q 2503 -91 2169 -91 
Q 1331 -91 842 396 
Q 353 884 353 1716 
Q 353 2575 817 3079 
Q 1281 3584 2069 3584 
Q 2775 3584 3186 3129 
Q 3597 2675 3597 1894 
z
M 3022 2063 
Q 3016 2534 2758 2815 
Q 2500 3097 2075 3097 
Q 1594 3097 1305 2825 
Q 1016 2553 972 2059 
L 3022 2063 
z
" transform="scale(0.015625)"/>
       <path id="DejaVuSans-56" d="M 2834 3397 
L 2834 2853 
Q 2591 2978 2328 3040 
Q 2066 3103 1784 3103 
Q 1356 3103 1142 2972 
Q 928 2841 928 2578 
Q 928 2378 1081 2264 
Q 1234 2150 1697 2047 
L 1894 2003 
Q 2506 1872 2764 1633 
Q 3022 1394 3022 966 
Q 3022 478 2636 193 
Q 2250 -91 1575 -91 
Q 1294 -91 989 -36 
Q 684 19 347 128 
L 347 722 
Q 666 556 975 473 
Q 1284 391 1588 391 
Q 1994 391 2212 530 
Q 2431 669 2431 922 
Q 2431 1156 2273 1281 
Q 2116 1406 1581 1522 
L 1381 1569 
Q 847 1681 609 1914 
Q 372 2147 372 2553 
Q 372 3047 722 3315 
Q 1072 3584 1716 3584 
Q 2034 3584 2315 3537 
Q 2597 3491 2834 3397 
z
" transform="scale(0.015625)"/>
       <path id="DejaVuSans-58" d="M 544 1381 
L 544 3500 
L 1119 3500 
L 1119 1403 
Q 1119 906 1312 657 
Q 1506 409 1894 409 
Q 2359 409 2629 706 
Q 2900 1003 2900 1516 
L 2900 3500 
L 3475 3500 
L 3475 0 
L 2900 0 
L 2900 538 
Q 2691 219 2414 64 
Q 2138 -91 1772 -91 
Q 1169 -91 856 284 
Q 544 659 544 1381 
z
M 1991 3584 
L 1991 3584 
z
" transform="scale(0.015625)"/>
       <path id="DejaVuSans-51" d="M 3513 2113 
L 3513 0 
L 2938 0 
L 2938 2094 
Q 2938 2591 2744 2837 
Q 2550 3084 2163 3084 
Q 1697 3084 1428 2787 
Q 1159 2491 1159 1978 
L 1159 0 
L 581 0 
L 581 3500 
L 1159 3500 
L 1159 2956 
Q 1366 3272 1645 3428 
Q 1925 3584 2291 3584 
Q 2894 3584 3203 3211 
Q 3513 2838 3513 2113 
z
" transform="scale(0.015625)"/>
      </defs>
      <use xlink:href="#DejaVuSans-57"/>
      <use xlink:href="#DejaVuSans-52" transform="translate(39.203125 0)"/>
      <use xlink:href="#DejaVuSans-55" transform="translate(100.390625 0)"/>
      <use xlink:href="#DejaVuSans-52" transform="translate(139.296875 0)"/>
      <use xlink:href="#DejaVuSans-4c" transform="translate(200.484375 0)"/>
      <use xlink:href="#DejaVuSans-47" transform="translate(228.265625 0)"/>
      <use xlink:href="#DejaVuSans-44" transform="translate(291.75 0)"/>
      <use xlink:href="#DejaVuSans-4f" transform="translate(353.03125 0)"/>
      <use xlink:href="#DejaVuSans-3" transform="translate(380.8125 0)"/>
      <use xlink:href="#DejaVuSans-20" transform="translate(412.59375 0)"/>
      <use xlink:href="#DejaVuSans-3" transform="translate(496.390625 0)"/>
      <use xlink:href="#DejaVuSans-53" transform="translate(528.171875 0)"/>
      <use xlink:href="#DejaVuSans-52" transform="translate(591.65625 0)"/>
      <use xlink:href="#DejaVuSans-4f" transform="translate(652.84375 0)"/>
      <use xlink:href="#DejaVuSans-52" transform="translate(680.625 0)"/>
      <use xlink:href="#DejaVuSans-4c" transform="translate(741.8125 0)"/>
      <use xlink:href="#DejaVuSans-47" transform="translate(769.59375 0)"/>
      <use xlink:href="#DejaVuSans-44" transform="translate(833.078125 0)"/>
      <use xlink:href="#DejaVuSans-4f" transform="translate(894.359375 0)"/>
      <use xlink:href="#DejaVuSans-3" transform="translate(922.140625 0)"/>
      <use xlink:href="#DejaVuSans-55" transform="translate(953.921875 0)"/>
      <use xlink:href="#DejaVuSans-48" transform="translate(992.828125 0)"/>
      <use xlink:href="#DejaVuSans-56" transform="translate(1054.359375 0)"/>
      <use xlink:href="#DejaVuSans-52" transform="translate(1106.453125 0)"/>
      <use xlink:href="#DejaVuSans-4f" transform="translate(1167.640625 0)"/>
      <use xlink:href="#DejaVuSans-58" transform="translate(1195.421875 0)"/>
      <use xlink:href="#DejaVuSans-57" transform="translate(1258.796875 0)"/>
      <use xlink:href="#DejaVuSans-4c" transform="translate(1298 0)"/>
      <use xlink:href="#DejaVuSans-52" transform="translate(1325.78125 0)"/>
      <use xlink:href="#DejaVuSans-51" transform="translate(1386.96875 0)"/>
     </g>
    </g>
   </g>
   <g id="matplotlib.axis_2">
    <g id="ytick_1">
     <g id="line2d_5">
      <path d="M 44.103906 294.198739 
L 374.85576 294.198739 
" clip-path="url(#pa50a6fd394)" style="fill: none; stroke: #b0b0b0; stroke-opacity: 0.25; stroke-width: 0.8; stroke-linecap: square"/>
     </g>
     <g id="line2d_6">
      <defs>
       <path id="m4310cf5e5b" d="M 0 0 
L -3.5 0 
" style="stroke: #000000; stroke-width: 0.8"/>
      </defs>
      <g>
       <use xlink:href="#m4310cf5e5b" x="44.103906" y="294.198739" style="stroke: #000000; stroke-width: 0.8"/>
      </g>
     </g>
     <g id="text_6">
      <!-- 0.0 -->
      <g transform="translate(21.200781 297.997567) scale(0.1 -0.1)">
       <defs>
        <path id="DejaVuSans-13" d="M 2034 4250 
Q 1547 4250 1301 3770 
Q 1056 3291 1056 2328 
Q 1056 1369 1301 889 
Q 1547 409 2034 409 
Q 2525 409 2770 889 
Q 3016 1369 3016 2328 
Q 3016 3291 2770 3770 
Q 2525 4250 2034 4250 
z
M 2034 4750 
Q 2819 4750 3233 4129 
Q 3647 3509 3647 2328 
Q 3647 1150 3233 529 
Q 2819 -91 2034 -91 
Q 1250 -91 836 529 
Q 422 1150 422 2328 
Q 422 3509 836 4129 
Q 1250 4750 2034 4750 
z
" transform="scale(0.015625)"/>
        <path id="DejaVuSans-11" d="M 684 794 
L 1344 794 
L 1344 0 
L 684 0 
L 684 794 
z
" transform="scale(0.015625)"/>
       </defs>
       <use xlink:href="#DejaVuSans-13"/>
       <use xlink:href="#DejaVuSans-11" transform="translate(63.625 0)"/>
       <use xlink:href="#DejaVuSans-13" transform="translate(95.40625 0)"/>
      </g>
     </g>
    </g>
    <g id="ytick_2">
     <g id="line2d_7">
      <path d="M 44.103906 249.49007 
L 374.85576 249.49007 
" clip-path="url(#pa50a6fd394)" style="fill: none; stroke: #b0b0b0; stroke-opacity: 0.25; stroke-width: 0.8; stroke-linecap: square"/>
     </g>
     <g id="line2d_8">
      <g>
       <use xlink:href="#m4310cf5e5b" x="44.103906" y="249.49007" style="stroke: #000000; stroke-width: 0.8"/>
      </g>
     </g>
     <g id="text_7">
      <!-- 0.5 -->
      <g transform="translate(21.200781 253.288899) scale(0.1 -0.1)">
       <defs>
        <path id="DejaVuSans-18" d="M 691 4666 
L 3169 4666 
L 3169 4134 
L 1269 4134 
L 1269 2991 
Q 1406 3038 1543 3061 
Q 1681 3084 1819 3084 
Q 2600 3084 3056 2656 
Q 3513 2228 3513 1497 
Q 3513 744 3044 326 
Q 2575 -91 1722 -91 
Q 1428 -91 1123 -41 
Q 819 9 494 109 
L 494 744 
Q 775 591 1075 516 
Q 1375 441 1709 441 
Q 2250 441 2565 725 
Q 2881 1009 2881 1497 
Q 2881 1984 2565 2268 
Q 2250 2553 1709 2553 
Q 1456 2553 1204 2497 
Q 953 2441 691 2322 
L 691 4666 
z
" transform="scale(0.015625)"/>
       </defs>
       <use xlink:href="#DejaVuSans-13"/>
       <use xlink:href="#DejaVuSans-11" transform="translate(63.625 0)"/>
       <use xlink:href="#DejaVuSans-18" transform="translate(95.40625 0)"/>
      </g>
     </g>
    </g>
    <g id="ytick_3">
     <g id="line2d_9">
      <path d="M 44.103906 204.781402 
L 374.85576 204.781402 
" clip-path="url(#pa50a6fd394)" style="fill: none; stroke: #b0b0b0; stroke-opacity: 0.25; stroke-width: 0.8; stroke-linecap: square"/>
     </g>
     <g id="line2d_10">
      <g>
       <use xlink:href="#m4310cf5e5b" x="44.103906" y="204.781402" style="stroke: #000000; stroke-width: 0.8"/>
      </g>
     </g>
     <g id="text_8">
      <!-- 1.0 -->
      <g transform="translate(21.200781 208.58023) scale(0.1 -0.1)">
       <use xlink:href="#DejaVuSans-14"/>
       <use xlink:href="#DejaVuSans-11" transform="translate(63.625 0)"/>
       <use xlink:href="#DejaVuSans-13" transform="translate(95.40625 0)"/>
      </g>
     </g>
    </g>
    <g id="ytick_4">
     <g id="line2d_11">
      <path d="M 44.103906 160.072734 
L 374.85576 160.072734 
" clip-path="url(#pa50a6fd394)" style="fill: none; stroke: #b0b0b0; stroke-opacity: 0.25; stroke-width: 0.8; stroke-linecap: square"/>
     </g>
     <g id="line2d_12">
      <g>
       <use xlink:href="#m4310cf5e5b" x="44.103906" y="160.072734" style="stroke: #000000; stroke-width: 0.8"/>
      </g>
     </g>
     <g id="text_9">
      <!-- 1.5 -->
      <g transform="translate(21.200781 163.871562) scale(0.1 -0.1)">
       <use xlink:href="#DejaVuSans-14"/>
       <use xlink:href="#DejaVuSans-11" transform="translate(63.625 0)"/>
       <use xlink:href="#DejaVuSans-18" transform="translate(95.40625 0)"/>
      </g>
     </g>
    </g>
    <g id="ytick_5">
     <g id="line2d_13">
      <path d="M 44.103906 115.364066 
L 374.85576 115.364066 
" clip-path="url(#pa50a6fd394)" style="fill: none; stroke: #b0b0b0; stroke-opacity: 0.25; stroke-width: 0.8; stroke-linecap: square"/>
     </g>
     <g id="line2d_14">
      <g>
       <use xlink:href="#m4310cf5e5b" x="44.103906" y="115.364066" style="stroke: #000000; stroke-width: 0.8"/>
      </g>
     </g>
     <g id="text_10">
      <!-- 2.0 -->
      <g transform="translate(21.200781 119.162894) scale(0.1 -0.1)">
       <use xlink:href="#DejaVuSans-15"/>
       <use xlink:href="#DejaVuSans-11" transform="translate(63.625 0)"/>
       <use xlink:href="#DejaVuSans-13" transform="translate(95.40625 0)"/>
      </g>
     </g>
    </g>
    <g id="ytick_6">
     <g id="line2d_15">
      <path d="M 44.103906 70.655397 
L 374.85576 70.655397 
" clip-path="url(#pa50a6fd394)" style="fill: none; stroke: #b0b0b0; stroke-opacity: 0.25; stroke-width: 0.8; stroke-linecap: square"/>
     </g>
     <g id="line2d_16">
      <g>
       <use xlink:href="#m4310cf5e5b" x="44.103906" y="70.655397" style="stroke: #000000; stroke-width: 0.8"/>
      </g>
     </g>
     <g id="text_11">
      <!-- 2.5 -->
      <g transform="translate(21.200781 74.454225) scale(0.1 -0.1)">
       <use xlink:href="#DejaVuSans-15"/>
       <use xlink:href="#DejaVuSans-11" transform="translate(63.625 0)"/>
       <use xlink:href="#DejaVuSans-18" transform="translate(95.40625 0)"/>
      </g>
     </g>
    </g>
    <g id="text_12">
     <!-- original / current speedup -->
     <g transform="translate(14.798438 231.885234) rotate(-90) scale(0.1 -0.1)">
      <defs>
       <path id="DejaVuSans-4a" d="M 2906 1791 
Q 2906 2416 2648 2759 
Q 2391 3103 1925 3103 
Q 1463 3103 1205 2759 
Q 947 2416 947 1791 
Q 947 1169 1205 825 
Q 1463 481 1925 481 
Q 2391 481 2648 825 
Q 2906 1169 2906 1791 
z
M 3481 434 
Q 3481 -459 3084 -895 
Q 2688 -1331 1869 -1331 
Q 1566 -1331 1297 -1286 
Q 1028 -1241 775 -1147 
L 775 -588 
Q 1028 -725 1275 -790 
Q 1522 -856 1778 -856 
Q 2344 -856 2625 -561 
Q 2906 -266 2906 331 
L 2906 616 
Q 2728 306 2450 153 
Q 2172 0 1784 0 
Q 1141 0 747 490 
Q 353 981 353 1791 
Q 353 2603 747 3093 
Q 1141 3584 1784 3584 
Q 2172 3584 2450 3431 
Q 2728 3278 2906 2969 
L 2906 3500 
L 3481 3500 
L 3481 434 
z
" transform="scale(0.015625)"/>
       <path id="DejaVuSans-12" d="M 1625 4666 
L 2156 4666 
L 531 -594 
L 0 -594 
L 1625 4666 
z
" transform="scale(0.015625)"/>
       <path id="DejaVuSans-46" d="M 3122 3366 
L 3122 2828 
Q 2878 2963 2633 3030 
Q 2388 3097 2138 3097 
Q 1578 3097 1268 2742 
Q 959 2388 959 1747 
Q 959 1106 1268 751 
Q 1578 397 2138 397 
Q 2388 397 2633 464 
Q 2878 531 3122 666 
L 3122 134 
Q 2881 22 2623 -34 
Q 2366 -91 2075 -91 
Q 1284 -91 818 406 
Q 353 903 353 1747 
Q 353 2603 823 3093 
Q 1294 3584 2113 3584 
Q 2378 3584 2631 3529 
Q 2884 3475 3122 3366 
z
" transform="scale(0.015625)"/>
      </defs>
      <use xlink:href="#DejaVuSans-52"/>
      <use xlink:href="#DejaVuSans-55" transform="translate(61.1875 0)"/>
      <use xlink:href="#DejaVuSans-4c" transform="translate(102.296875 0)"/>
      <use xlink:href="#DejaVuSans-4a" transform="translate(130.078125 0)"/>
      <use xlink:href="#DejaVuSans-4c" transform="translate(193.5625 0)"/>
      <use xlink:href="#DejaVuSans-51" transform="translate(221.34375 0)"/>
      <use xlink:href="#DejaVuSans-44" transform="translate(284.71875 0)"/>
      <use xlink:href="#DejaVuSans-4f" transform="translate(346 0)"/>
      <use xlink:href="#DejaVuSans-3" transform="translate(373.78125 0)"/>
      <use xlink:href="#DejaVuSans-12" transform="translate(405.5625 0)"/>
      <use xlink:href="#DejaVuSans-3" transform="translate(439.25 0)"/>
      <use xlink:href="#DejaVuSans-46" transform="translate(471.03125 0)"/>
      <use xlink:href="#DejaVuSans-58" transform="translate(526.015625 0)"/>
      <use xlink:href="#DejaVuSans-55" transform="translate(589.390625 0)"/>
      <use xlink:href="#DejaVuSans-55" transform="translate(628.75 0)"/>
      <use xlink:href="#DejaVuSans-48" transform="translate(667.65625 0)"/>
      <use xlink:href="#DejaVuSans-51" transform="translate(729.1875 0)"/>
      <use xlink:href="#DejaVuSans-57" transform="translate(792.5625 0)"/>
      <use xlink:href="#DejaVuSans-3" transform="translate(831.765625 0)"/>
      <use xlink:href="#DejaVuSans-56" transform="translate(863.546875 0)"/>
      <use xlink:href="#DejaVuSans-53" transform="translate(915.640625 0)"/>
      <use xlink:href="#DejaVuSans-48" transform="translate(979.125 0)"/>
      <use xlink:href="#DejaVuSans-48" transform="translate(1040.65625 0)"/>
      <use xlink:href="#DejaVuSans-47" transform="translate(1102.1875 0)"/>
      <use xlink:href="#DejaVuSans-58" transform="translate(1165.671875 0)"/>
      <use xlink:href="#DejaVuSans-53" transform="translate(1229.046875 0)"/>
     </g>
    </g>
   </g>
   <g id="line2d_17">
    <path d="M 44.103906 204.781402 
L 374.85576 204.781402 
" clip-path="url(#pa50a6fd394)" style="fill: none; stroke: #111827; stroke-linecap: square"/>
   </g>
   <g id="patch_15">
    <path d="M 44.103906 294.198739 
L 44.103906 40.318605 
" style="fill: none; stroke: #000000; stroke-width: 0.8; stroke-linejoin: miter; stroke-linecap: square"/>
   </g>
   <g id="patch_16">
    <path d="M 374.85576 294.198739 
L 374.85576 40.318605 
" style="fill: none; stroke: #000000; stroke-width: 0.8; stroke-linejoin: miter; stroke-linecap: square"/>
   </g>
   <g id="patch_17">
    <path d="M 44.103906 294.198739 
L 374.85576 294.198739 
" style="fill: none; stroke: #000000; stroke-width: 0.8; stroke-linejoin: miter; stroke-linecap: square"/>
   </g>
   <g id="patch_18">
    <path d="M 44.103906 40.318605 
L 374.85576 40.318605 
" style="fill: none; stroke: #000000; stroke-width: 0.8; stroke-linejoin: miter; stroke-linecap: square"/>
   </g>
   <g id="text_13">
    <!-- current -->
    <g transform="translate(187.835771 34.318605) scale(0.12 -0.12)">
     <use xlink:href="#DejaVuSans-46"/>
     <use xlink:href="#DejaVuSans-58" transform="translate(54.984375 0)"/>
     <use xlink:href="#DejaVuSans-55" transform="translate(118.359375 0)"/>
     <use xlink:href="#DejaVuSans-55" transform="translate(157.71875 0)"/>
     <use xlink:href="#DejaVuSans-48" transform="translate(196.625 0)"/>
     <use xlink:href="#DejaVuSans-51" transform="translate(258.15625 0)"/>
     <use xlink:href="#DejaVuSans-57" transform="translate(321.53125 0)"/>
    </g>
   </g>
   <g id="legend_1">
    <g id="patch_19">
     <path d="M 51.103906 93.320949 
L 125.228906 93.320949 
Q 127.228906 93.320949 127.228906 91.320949 
L 127.228906 47.318605 
Q 127.228906 45.318605 125.228906 45.318605 
L 51.103906 45.318605 
Q 49.103906 45.318605 49.103906 47.318605 
L 49.103906 91.320949 
Q 49.103906 93.320949 51.103906 93.320949 
z
" style="fill: #ffffff; opacity: 0.8; stroke: #cccccc; stroke-linejoin: miter"/>
    </g>
    <g id="patch_20">
     <path d="M 53.103906 56.917042 
L 73.103906 56.917042 
L 73.103906 49.917042 
L 53.103906 49.917042 
z
" style="fill: #1f77b4"/>
    </g>
    <g id="text_14">
     <!-- value -->
     <g transform="translate(81.103906 56.917042) scale(0.1 -0.1)">
      <defs>
       <path id="DejaVuSans-59" d="M 191 3500 
L 800 3500 
L 1894 563 
L 2988 3500 
L 3597 3500 
L 2284 0 
L 1503 0 
L 191 3500 
z
" transform="scale(0.015625)"/>
      </defs>
      <use xlink:href="#DejaVuSans-59"/>
      <use xlink:href="#DejaVuSans-44" transform="translate(59.1875 0)"/>
      <use xlink:href="#DejaVuSans-4f" transform="translate(120.46875 0)"/>
      <use xlink:href="#DejaVuSans-58" transform="translate(148.25 0)"/>
      <use xlink:href="#DejaVuSans-48" transform="translate(211.625 0)"/>
     </g>
    </g>
    <g id="patch_21">
     <path d="M 53.103906 71.917824 
L 73.103906 71.917824 
L 73.103906 64.917824 
L 53.103906 64.917824 
z
" style="fill: #ff7f0e"/>
    </g>
    <g id="text_15">
     <!-- gradient -->
     <g transform="translate(81.103906 71.917824) scale(0.1 -0.1)">
      <use xlink:href="#DejaVuSans-4a"/>
      <use xlink:href="#DejaVuSans-55" transform="translate(63.484375 0)"/>
      <use xlink:href="#DejaVuSans-44" transform="translate(104.59375 0)"/>
      <use xlink:href="#DejaVuSans-47" transform="translate(165.875 0)"/>
      <use xlink:href="#DejaVuSans-4c" transform="translate(229.359375 0)"/>
      <use xlink:href="#DejaVuSans-48" transform="translate(257.140625 0)"/>
      <use xlink:href="#DejaVuSans-51" transform="translate(318.671875 0)"/>
      <use xlink:href="#DejaVuSans-57" transform="translate(382.046875 0)"/>
     </g>
    </g>
    <g id="patch_22">
     <path d="M 53.103906 86.918605 
L 73.103906 86.918605 
L 73.103906 79.918605 
L 53.103906 79.918605 
z
" style="fill: #2ca02c"/>
    </g>
    <g id="text_16">
     <!-- HVP -->
     <g transform="translate(81.103906 86.918605) scale(0.1 -0.1)">
      <defs>
       <path id="DejaVuSans-2b" d="M 628 4666 
L 1259 4666 
L 1259 2753 
L 3553 2753 
L 3553 4666 
L 4184 4666 
L 4184 0 
L 3553 0 
L 3553 2222 
L 1259 2222 
L 1259 0 
L 628 0 
L 628 4666 
z
" transform="scale(0.015625)"/>
       <path id="DejaVuSans-39" d="M 1831 0 
L 50 4666 
L 709 4666 
L 2188 738 
L 3669 4666 
L 4325 4666 
L 2547 0 
L 1831 0 
z
" transform="scale(0.015625)"/>
       <path id="DejaVuSans-33" d="M 1259 4147 
L 1259 2394 
L 2053 2394 
Q 2494 2394 2734 2622 
Q 2975 2850 2975 3272 
Q 2975 3691 2734 3919 
Q 2494 4147 2053 4147 
L 1259 4147 
z
M 628 4666 
L 2053 4666 
Q 2838 4666 3239 4311 
Q 3641 3956 3641 3272 
Q 3641 2581 3239 2228 
Q 2838 1875 2053 1875 
L 1259 1875 
L 1259 0 
L 628 0 
L 628 4666 
z
" transform="scale(0.015625)"/>
      </defs>
      <use xlink:href="#DejaVuSans-2b"/>
      <use xlink:href="#DejaVuSans-39" transform="translate(75.203125 0)"/>
      <use xlink:href="#DejaVuSans-33" transform="translate(143.609375 0)"/>
     </g>
    </g>
   </g>
  </g>
  <g id="axes_2">
   <g id="patch_23">
    <path d="M 419.247666 294.198739 
L 749.99952 294.198739 
L 749.99952 40.318605 
L 419.247666 40.318605 
z
" style="fill: #ffffff"/>
   </g>
   <g id="patch_24">
    <path d="M 434.281841 294.198739 
L 453.023632 294.198739 
L 453.023632 174.941508 
L 434.281841 174.941508 
z
" clip-path="url(#p2b9557aa49)" style="fill: #1f77b4"/>
   </g>
   <g id="patch_25">
    <path d="M 515.767886 294.198739 
L 534.509676 294.198739 
L 534.509676 160.960269 
L 515.767886 160.960269 
z
" clip-path="url(#p2b9557aa49)" style="fill: #1f77b4"/>
   </g>
   <g id="patch_26">
    <path d="M 597.25393 294.198739 
L 615.99572 294.198739 
L 615.99572 100.972405 
L 597.25393 100.972405 
z
" clip-path="url(#p2b9557aa49)" style="fill: #1f77b4"/>
   </g>
   <g id="patch_27">
    <path d="M 678.739974 294.198739 
L 697.481764 294.198739 
L 697.481764 74.968284 
L 678.739974 74.968284 
z
" clip-path="url(#p2b9557aa49)" style="fill: #1f77b4"/>
   </g>
   <g id="patch_28">
    <path d="M 453.023632 294.198739 
L 471.765422 294.198739 
L 471.765422 155.935725 
L 453.023632 155.935725 
z
" clip-path="url(#p2b9557aa49)" style="fill: #ff7f0e"/>
   </g>
   <g id="patch_29">
    <path d="M 534.509676 294.198739 
L 553.251466 294.198739 
L 553.251466 135.590154 
L 534.509676 135.590154 
z
" clip-path="url(#p2b9557aa49)" style="fill: #ff7f0e"/>
   </g>
   <g id="patch_30">
    <path d="M 615.99572 294.198739 
L 634.73751 294.198739 
L 634.73751 109.309238 
L 615.99572 109.309238 
z
" clip-path="url(#p2b9557aa49)" style="fill: #ff7f0e"/>
   </g>
   <g id="patch_31">
    <path d="M 697.481764 294.198739 
L 716.223555 294.198739 
L 716.223555 54.305769 
L 697.481764 54.305769 
z
" clip-path="url(#p2b9557aa49)" style="fill: #ff7f0e"/>
   </g>
   <g id="patch_32">
    <path d="M 471.765422 294.198739 
L 490.507212 294.198739 
L 490.507212 181.22224 
L 471.765422 181.22224 
z
" clip-path="url(#p2b9557aa49)" style="fill: #2ca02c"/>
   </g>
   <g id="patch_33">
    <path d="M 553.251466 294.198739 
L 571.993256 294.198739 
L 571.993256 121.886197 
L 553.251466 121.886197 
z
" clip-path="url(#p2b9557aa49)" style="fill: #2ca02c"/>
   </g>
   <g id="patch_34">
    <path d="M 634.73751 294.198739 
L 653.479301 294.198739 
L 653.479301 92.725252 
L 634.73751 92.725252 
z
" clip-path="url(#p2b9557aa49)" style="fill: #2ca02c"/>
   </g>
   <g id="patch_35">
    <path d="M 716.223555 294.198739 
L 734.965345 294.198739 
L 734.965345 52.408135 
L 716.223555 52.408135 
z
" clip-path="url(#p2b9557aa49)" style="fill: #2ca02c"/>
   </g>
   <g id="matplotlib.axis_3">
    <g id="xtick_5">
     <g id="line2d_18">
      <g>
       <use xlink:href="#m9b9e957fc7" x="462.394527" y="294.198739" style="stroke: #000000; stroke-width: 0.8"/>
      </g>
     </g>
     <g id="text_17">
      <!-- 8 -->
      <g transform="translate(459.213277 308.796395) scale(0.1 -0.1)">
       <use xlink:href="#DejaVuSans-1b"/>
      </g>
     </g>
    </g>
    <g id="xtick_6">
     <g id="line2d_19">
      <g>
       <use xlink:href="#m9b9e957fc7" x="543.880571" y="294.198739" style="stroke: #000000; stroke-width: 0.8"/>
      </g>
     </g>
     <g id="text_18">
      <!-- 12 -->
      <g transform="translate(537.518071 308.796395) scale(0.1 -0.1)">
       <use xlink:href="#DejaVuSans-14"/>
       <use xlink:href="#DejaVuSans-15" transform="translate(63.625 0)"/>
      </g>
     </g>
    </g>
    <g id="xtick_7">
     <g id="line2d_20">
      <g>
       <use xlink:href="#m9b9e957fc7" x="625.366615" y="294.198739" style="stroke: #000000; stroke-width: 0.8"/>
      </g>
     </g>
     <g id="text_19">
      <!-- 16 -->
      <g transform="translate(619.004115 308.796395) scale(0.1 -0.1)">
       <use xlink:href="#DejaVuSans-14"/>
       <use xlink:href="#DejaVuSans-19" transform="translate(63.625 0)"/>
      </g>
     </g>
    </g>
    <g id="xtick_8">
     <g id="line2d_21">
      <g>
       <use xlink:href="#m9b9e957fc7" x="706.85266" y="294.198739" style="stroke: #000000; stroke-width: 0.8"/>
      </g>
     </g>
     <g id="text_20">
      <!-- 24 -->
      <g transform="translate(700.49016 308.796395) scale(0.1 -0.1)">
       <use xlink:href="#DejaVuSans-15"/>
       <use xlink:href="#DejaVuSans-17" transform="translate(63.625 0)"/>
      </g>
     </g>
    </g>
    <g id="text_21">
     <!-- toroidal = poloidal resolution -->
     <g transform="translate(512.106406 322.797176) scale(0.1 -0.1)">
      <use xlink:href="#DejaVuSans-57"/>
      <use xlink:href="#DejaVuSans-52" transform="translate(39.203125 0)"/>
      <use xlink:href="#DejaVuSans-55" transform="translate(100.390625 0)"/>
      <use xlink:href="#DejaVuSans-52" transform="translate(139.296875 0)"/>
      <use xlink:href="#DejaVuSans-4c" transform="translate(200.484375 0)"/>
      <use xlink:href="#DejaVuSans-47" transform="translate(228.265625 0)"/>
      <use xlink:href="#DejaVuSans-44" transform="translate(291.75 0)"/>
      <use xlink:href="#DejaVuSans-4f" transform="translate(353.03125 0)"/>
      <use xlink:href="#DejaVuSans-3" transform="translate(380.8125 0)"/>
      <use xlink:href="#DejaVuSans-20" transform="translate(412.59375 0)"/>
      <use xlink:href="#DejaVuSans-3" transform="translate(496.390625 0)"/>
      <use xlink:href="#DejaVuSans-53" transform="translate(528.171875 0)"/>
      <use xlink:href="#DejaVuSans-52" transform="translate(591.65625 0)"/>
      <use xlink:href="#DejaVuSans-4f" transform="translate(652.84375 0)"/>
      <use xlink:href="#DejaVuSans-52" transform="translate(680.625 0)"/>
      <use xlink:href="#DejaVuSans-4c" transform="translate(741.8125 0)"/>
      <use xlink:href="#DejaVuSans-47" transform="translate(769.59375 0)"/>
      <use xlink:href="#DejaVuSans-44" transform="translate(833.078125 0)"/>
      <use xlink:href="#DejaVuSans-4f" transform="translate(894.359375 0)"/>
      <use xlink:href="#DejaVuSans-3" transform="translate(922.140625 0)"/>
      <use xlink:href="#DejaVuSans-55" transform="translate(953.921875 0)"/>
      <use xlink:href="#DejaVuSans-48" transform="translate(992.828125 0)"/>
      <use xlink:href="#DejaVuSans-56" transform="translate(1054.359375 0)"/>
      <use xlink:href="#DejaVuSans-52" transform="translate(1106.453125 0)"/>
      <use xlink:href="#DejaVuSans-4f" transform="translate(1167.640625 0)"/>
      <use xlink:href="#DejaVuSans-58" transform="translate(1195.421875 0)"/>
      <use xlink:href="#DejaVuSans-57" transform="translate(1258.796875 0)"/>
      <use xlink:href="#DejaVuSans-4c" transform="translate(1298 0)"/>
      <use xlink:href="#DejaVuSans-52" transform="translate(1325.78125 0)"/>
      <use xlink:href="#DejaVuSans-51" transform="translate(1386.96875 0)"/>
     </g>
    </g>
   </g>
   <g id="matplotlib.axis_4">
    <g id="ytick_7">
     <g id="line2d_22">
      <path d="M 419.247666 294.198739 
L 749.99952 294.198739 
" clip-path="url(#p2b9557aa49)" style="fill: none; stroke: #b0b0b0; stroke-opacity: 0.25; stroke-width: 0.8; stroke-linecap: square"/>
     </g>
     <g id="line2d_23">
      <g>
       <use xlink:href="#m4310cf5e5b" x="419.247666" y="294.198739" style="stroke: #000000; stroke-width: 0.8"/>
      </g>
     </g>
     <g id="text_22">
      <!-- 0.0 -->
      <g transform="translate(396.344541 297.997567) scale(0.1 -0.1)">
       <use xlink:href="#DejaVuSans-13"/>
       <use xlink:href="#DejaVuSans-11" transform="translate(63.625 0)"/>
       <use xlink:href="#DejaVuSans-13" transform="translate(95.40625 0)"/>
      </g>
     </g>
    </g>
    <g id="ytick_8">
     <g id="line2d_24">
      <path d="M 419.247666 249.152068 
L 749.99952 249.152068 
" clip-path="url(#p2b9557aa49)" style="fill: none; stroke: #b0b0b0; stroke-opacity: 0.25; stroke-width: 0.8; stroke-linecap: square"/>
     </g>
     <g id="line2d_25">
      <g>
       <use xlink:href="#m4310cf5e5b" x="419.247666" y="249.152068" style="stroke: #000000; stroke-width: 0.8"/>
      </g>
     </g>
     <g id="text_23">
      <!-- 0.5 -->
      <g transform="translate(396.344541 252.950896) scale(0.1 -0.1)">
       <use xlink:href="#DejaVuSans-13"/>
       <use xlink:href="#DejaVuSans-11" transform="translate(63.625 0)"/>
       <use xlink:href="#DejaVuSans-18" transform="translate(95.40625 0)"/>
      </g>
     </g>
    </g>
    <g id="ytick_9">
     <g id="line2d_26">
      <path d="M 419.247666 204.105398 
L 749.99952 204.105398 
" clip-path="url(#p2b9557aa49)" style="fill: none; stroke: #b0b0b0; stroke-opacity: 0.25; stroke-width: 0.8; stroke-linecap: square"/>
     </g>
     <g id="line2d_27">
      <g>
       <use xlink:href="#m4310cf5e5b" x="419.247666" y="204.105398" style="stroke: #000000; stroke-width: 0.8"/>
      </g>
     </g>
     <g id="text_24">
      <!-- 1.0 -->
      <g transform="translate(396.344541 207.904226) scale(0.1 -0.1)">
       <use xlink:href="#DejaVuSans-14"/>
       <use xlink:href="#DejaVuSans-11" transform="translate(63.625 0)"/>
       <use xlink:href="#DejaVuSans-13" transform="translate(95.40625 0)"/>
      </g>
     </g>
    </g>
    <g id="ytick_10">
     <g id="line2d_28">
      <path d="M 419.247666 159.058727 
L 749.99952 159.058727 
" clip-path="url(#p2b9557aa49)" style="fill: none; stroke: #b0b0b0; stroke-opacity: 0.25; stroke-width: 0.8; stroke-linecap: square"/>
     </g>
     <g id="line2d_29">
      <g>
       <use xlink:href="#m4310cf5e5b" x="419.247666" y="159.058727" style="stroke: #000000; stroke-width: 0.8"/>
      </g>
     </g>
     <g id="text_25">
      <!-- 1.5 -->
      <g transform="translate(396.344541 162.857555) scale(0.1 -0.1)">
       <use xlink:href="#DejaVuSans-14"/>
       <use xlink:href="#DejaVuSans-11" transform="translate(63.625 0)"/>
       <use xlink:href="#DejaVuSans-18" transform="translate(95.40625 0)"/>
      </g>
     </g>
    </g>
    <g id="ytick_11">
     <g id="line2d_30">
      <path d="M 419.247666 114.012057 
L 749.99952 114.012057 
" clip-path="url(#p2b9557aa49)" style="fill: none; stroke: #b0b0b0; stroke-opacity: 0.25; stroke-width: 0.8; stroke-linecap: square"/>
     </g>
     <g id="line2d_31">
      <g>
       <use xlink:href="#m4310cf5e5b" x="419.247666" y="114.012057" style="stroke: #000000; stroke-width: 0.8"/>
      </g>
     </g>
     <g id="text_26">
      <!-- 2.0 -->
      <g transform="translate(396.344541 117.810885) scale(0.1 -0.1)">
       <use xlink:href="#DejaVuSans-15"/>
       <use xlink:href="#DejaVuSans-11" transform="translate(63.625 0)"/>
       <use xlink:href="#DejaVuSans-13" transform="translate(95.40625 0)"/>
      </g>
     </g>
    </g>
    <g id="ytick_12">
     <g id="line2d_32">
      <path d="M 419.247666 68.965386 
L 749.99952 68.965386 
" clip-path="url(#p2b9557aa49)" style="fill: none; stroke: #b0b0b0; stroke-opacity: 0.25; stroke-width: 0.8; stroke-linecap: square"/>
     </g>
     <g id="line2d_33">
      <g>
       <use xlink:href="#m4310cf5e5b" x="419.247666" y="68.965386" style="stroke: #000000; stroke-width: 0.8"/>
      </g>
     </g>
     <g id="text_27">
      <!-- 2.5 -->
      <g transform="translate(396.344541 72.764214) scale(0.1 -0.1)">
       <use xlink:href="#DejaVuSans-15"/>
       <use xlink:href="#DejaVuSans-11" transform="translate(63.625 0)"/>
       <use xlink:href="#DejaVuSans-18" transform="translate(95.40625 0)"/>
      </g>
     </g>
    </g>
    <g id="text_28">
     <!-- original / new speedup -->
     <g transform="translate(389.942198 224.182891) rotate(-90) scale(0.1 -0.1)">
      <defs>
       <path id="DejaVuSans-5a" d="M 269 3500 
L 844 3500 
L 1563 769 
L 2278 3500 
L 2956 3500 
L 3675 769 
L 4391 3500 
L 4966 3500 
L 4050 0 
L 3372 0 
L 2619 2869 
L 1863 0 
L 1184 0 
L 269 3500 
z
" transform="scale(0.015625)"/>
      </defs>
      <use xlink:href="#DejaVuSans-52"/>
      <use xlink:href="#DejaVuSans-55" transform="translate(61.1875 0)"/>
      <use xlink:href="#DejaVuSans-4c" transform="translate(102.296875 0)"/>
      <use xlink:href="#DejaVuSans-4a" transform="translate(130.078125 0)"/>
      <use xlink:href="#DejaVuSans-4c" transform="translate(193.5625 0)"/>
      <use xlink:href="#DejaVuSans-51" transform="translate(221.34375 0)"/>
      <use xlink:href="#DejaVuSans-44" transform="translate(284.71875 0)"/>
      <use xlink:href="#DejaVuSans-4f" transform="translate(346 0)"/>
      <use xlink:href="#DejaVuSans-3" transform="translate(373.78125 0)"/>
      <use xlink:href="#DejaVuSans-12" transform="translate(405.5625 0)"/>
      <use xlink:href="#DejaVuSans-3" transform="translate(439.25 0)"/>
      <use xlink:href="#DejaVuSans-51" transform="translate(471.03125 0)"/>
      <use xlink:href="#DejaVuSans-48" transform="translate(534.40625 0)"/>
      <use xlink:href="#DejaVuSans-5a" transform="translate(595.9375 0)"/>
      <use xlink:href="#DejaVuSans-3" transform="translate(677.71875 0)"/>
      <use xlink:href="#DejaVuSans-56" transform="translate(709.5 0)"/>
      <use xlink:href="#DejaVuSans-53" transform="translate(761.59375 0)"/>
      <use xlink:href="#DejaVuSans-48" transform="translate(825.078125 0)"/>
      <use xlink:href="#DejaVuSans-48" transform="translate(886.609375 0)"/>
      <use xlink:href="#DejaVuSans-47" transform="translate(948.140625 0)"/>
      <use xlink:href="#DejaVuSans-58" transform="translate(1011.625 0)"/>
      <use xlink:href="#DejaVuSans-53" transform="translate(1075 0)"/>
     </g>
    </g>
   </g>
   <g id="line2d_34">
    <path d="M 419.247666 204.105398 
L 749.99952 204.105398 
" clip-path="url(#p2b9557aa49)" style="fill: none; stroke: #111827; stroke-linecap: square"/>
   </g>
   <g id="patch_36">
    <path d="M 419.247666 294.198739 
L 419.247666 40.318605 
" style="fill: none; stroke: #000000; stroke-width: 0.8; stroke-linejoin: miter; stroke-linecap: square"/>
   </g>
   <g id="patch_37">
    <path d="M 749.99952 294.198739 
L 749.99952 40.318605 
" style="fill: none; stroke: #000000; stroke-width: 0.8; stroke-linejoin: miter; stroke-linecap: square"/>
   </g>
   <g id="patch_38">
    <path d="M 419.247666 294.198739 
L 749.99952 294.198739 
" style="fill: none; stroke: #000000; stroke-width: 0.8; stroke-linejoin: miter; stroke-linecap: square"/>
   </g>
   <g id="patch_39">
    <path d="M 419.247666 40.318605 
L 749.99952 40.318605 
" style="fill: none; stroke: #000000; stroke-width: 0.8; stroke-linejoin: miter; stroke-linecap: square"/>
   </g>
   <g id="text_29">
    <!-- new -->
    <g transform="translate(572.222343 34.318605) scale(0.12 -0.12)">
     <use xlink:href="#DejaVuSans-51"/>
     <use xlink:href="#DejaVuSans-48" transform="translate(63.375 0)"/>
     <use xlink:href="#DejaVuSans-5a" transform="translate(124.90625 0)"/>
    </g>
   </g>
   <g id="legend_2">
    <g id="patch_40">
     <path d="M 426.247666 93.320949 
L 500.372666 93.320949 
Q 502.372666 93.320949 502.372666 91.320949 
L 502.372666 47.318605 
Q 502.372666 45.318605 500.372666 45.318605 
L 426.247666 45.318605 
Q 424.247666 45.318605 424.247666 47.318605 
L 424.247666 91.320949 
Q 424.247666 93.320949 426.247666 93.320949 
z
" style="fill: #ffffff; opacity: 0.8; stroke: #cccccc; stroke-linejoin: miter"/>
    </g>
    <g id="patch_41">
     <path d="M 428.247666 56.917042 
L 448.247666 56.917042 
L 448.247666 49.917042 
L 428.247666 49.917042 
z
" style="fill: #1f77b4"/>
    </g>
    <g id="text_30">
     <!-- value -->
     <g transform="translate(456.247666 56.917042) scale(0.1 -0.1)">
      <use xlink:href="#DejaVuSans-59"/>
      <use xlink:href="#DejaVuSans-44" transform="translate(59.1875 0)"/>
      <use xlink:href="#DejaVuSans-4f" transform="translate(120.46875 0)"/>
      <use xlink:href="#DejaVuSans-58" transform="translate(148.25 0)"/>
      <use xlink:href="#DejaVuSans-48" transform="translate(211.625 0)"/>
     </g>
    </g>
    <g id="patch_42">
     <path d="M 428.247666 71.917824 
L 448.247666 71.917824 
L 448.247666 64.917824 
L 428.247666 64.917824 
z
" style="fill: #ff7f0e"/>
    </g>
    <g id="text_31">
     <!-- gradient -->
     <g transform="translate(456.247666 71.917824) scale(0.1 -0.1)">
      <use xlink:href="#DejaVuSans-4a"/>
      <use xlink:href="#DejaVuSans-55" transform="translate(63.484375 0)"/>
      <use xlink:href="#DejaVuSans-44" transform="translate(104.59375 0)"/>
      <use xlink:href="#DejaVuSans-47" transform="translate(165.875 0)"/>
      <use xlink:href="#DejaVuSans-4c" transform="translate(229.359375 0)"/>
      <use xlink:href="#DejaVuSans-48" transform="translate(257.140625 0)"/>
      <use xlink:href="#DejaVuSans-51" transform="translate(318.671875 0)"/>
      <use xlink:href="#DejaVuSans-57" transform="translate(382.046875 0)"/>
     </g>
    </g>
    <g id="patch_43">
     <path d="M 428.247666 86.918605 
L 448.247666 86.918605 
L 448.247666 79.918605 
L 428.247666 79.918605 
z
" style="fill: #2ca02c"/>
    </g>
    <g id="text_32">
     <!-- HVP -->
     <g transform="translate(456.247666 86.918605) scale(0.1 -0.1)">
      <use xlink:href="#DejaVuSans-2b"/>
      <use xlink:href="#DejaVuSans-39" transform="translate(75.203125 0)"/>
      <use xlink:href="#DejaVuSans-33" transform="translate(143.609375 0)"/>
     </g>
    </g>
   </g>
  </g>
  <g id="text_33">
   <!-- Speedup changes with quadrature resolution (geometric mean across cases) -->
   <g transform="translate(147.436635 16.318125) scale(0.12 -0.12)">
    <defs>
     <path id="DejaVuSans-36" d="M 3425 4513 
L 3425 3897 
Q 3066 4069 2747 4153 
Q 2428 4238 2131 4238 
Q 1616 4238 1336 4038 
Q 1056 3838 1056 3469 
Q 1056 3159 1242 3001 
Q 1428 2844 1947 2747 
L 2328 2669 
Q 3034 2534 3370 2195 
Q 3706 1856 3706 1288 
Q 3706 609 3251 259 
Q 2797 -91 1919 -91 
Q 1588 -91 1214 -16 
Q 841 59 441 206 
L 441 856 
Q 825 641 1194 531 
Q 1563 422 1919 422 
Q 2459 422 2753 634 
Q 3047 847 3047 1241 
Q 3047 1584 2836 1778 
Q 2625 1972 2144 2069 
L 1759 2144 
Q 1053 2284 737 2584 
Q 422 2884 422 3419 
Q 422 4038 858 4394 
Q 1294 4750 2059 4750 
Q 2388 4750 2728 4690 
Q 3069 4631 3425 4513 
z
" transform="scale(0.015625)"/>
     <path id="DejaVuSans-4b" d="M 3513 2113 
L 3513 0 
L 2938 0 
L 2938 2094 
Q 2938 2591 2744 2837 
Q 2550 3084 2163 3084 
Q 1697 3084 1428 2787 
Q 1159 2491 1159 1978 
L 1159 0 
L 581 0 
L 581 4863 
L 1159 4863 
L 1159 2956 
Q 1366 3272 1645 3428 
Q 1925 3584 2291 3584 
Q 2894 3584 3203 3211 
Q 3513 2838 3513 2113 
z
" transform="scale(0.015625)"/>
     <path id="DejaVuSans-54" d="M 947 1747 
Q 947 1113 1208 752 
Q 1469 391 1925 391 
Q 2381 391 2643 752 
Q 2906 1113 2906 1747 
Q 2906 2381 2643 2742 
Q 2381 3103 1925 3103 
Q 1469 3103 1208 2742 
Q 947 2381 947 1747 
z
M 2906 525 
Q 2725 213 2448 61 
Q 2172 -91 1784 -91 
Q 1150 -91 751 415 
Q 353 922 353 1747 
Q 353 2572 751 3078 
Q 1150 3584 1784 3584 
Q 2172 3584 2448 3432 
Q 2725 3281 2906 2969 
L 2906 3500 
L 3481 3500 
L 3481 -1331 
L 2906 -1331 
L 2906 525 
z
" transform="scale(0.015625)"/>
     <path id="DejaVuSans-b" d="M 1984 4856 
Q 1566 4138 1362 3434 
Q 1159 2731 1159 2009 
Q 1159 1288 1364 580 
Q 1569 -128 1984 -844 
L 1484 -844 
Q 1016 -109 783 600 
Q 550 1309 550 2009 
Q 550 2706 781 3412 
Q 1013 4119 1484 4856 
L 1984 4856 
z
" transform="scale(0.015625)"/>
     <path id="DejaVuSans-50" d="M 3328 2828 
Q 3544 3216 3844 3400 
Q 4144 3584 4550 3584 
Q 5097 3584 5394 3201 
Q 5691 2819 5691 2113 
L 5691 0 
L 5113 0 
L 5113 2094 
Q 5113 2597 4934 2840 
Q 4756 3084 4391 3084 
Q 3944 3084 3684 2787 
Q 3425 2491 3425 1978 
L 3425 0 
L 2847 0 
L 2847 2094 
Q 2847 2600 2669 2842 
Q 2491 3084 2119 3084 
Q 1678 3084 1418 2786 
Q 1159 2488 1159 1978 
L 1159 0 
L 581 0 
L 581 3500 
L 1159 3500 
L 1159 2956 
Q 1356 3278 1631 3431 
Q 1906 3584 2284 3584 
Q 2666 3584 2933 3390 
Q 3200 3197 3328 2828 
z
" transform="scale(0.015625)"/>
     <path id="DejaVuSans-c" d="M 513 4856 
L 1013 4856 
Q 1481 4119 1714 3412 
Q 1947 2706 1947 2009 
Q 1947 1309 1714 600 
Q 1481 -109 1013 -844 
L 513 -844 
Q 928 -128 1133 580 
Q 1338 1288 1338 2009 
Q 1338 2731 1133 3434 
Q 928 4138 513 4856 
z
" transform="scale(0.015625)"/>
    </defs>
    <use xlink:href="#DejaVuSans-36"/>
    <use xlink:href="#DejaVuSans-53" transform="translate(63.484375 0)"/>
    <use xlink:href="#DejaVuSans-48" transform="translate(126.96875 0)"/>
    <use xlink:href="#DejaVuSans-48" transform="translate(188.5 0)"/>
    <use xlink:href="#DejaVuSans-47" transform="translate(250.03125 0)"/>
    <use xlink:href="#DejaVuSans-58" transform="translate(313.515625 0)"/>
    <use xlink:href="#DejaVuSans-53" transform="translate(376.890625 0)"/>
    <use xlink:href="#DejaVuSans-3" transform="translate(440.375 0)"/>
    <use xlink:href="#DejaVuSans-46" transform="translate(472.15625 0)"/>
    <use xlink:href="#DejaVuSans-4b" transform="translate(527.140625 0)"/>
    <use xlink:href="#DejaVuSans-44" transform="translate(590.515625 0)"/>
    <use xlink:href="#DejaVuSans-51" transform="translate(651.796875 0)"/>
    <use xlink:href="#DejaVuSans-4a" transform="translate(715.171875 0)"/>
    <use xlink:href="#DejaVuSans-48" transform="translate(778.65625 0)"/>
    <use xlink:href="#DejaVuSans-56" transform="translate(840.1875 0)"/>
    <use xlink:href="#DejaVuSans-3" transform="translate(892.28125 0)"/>
    <use xlink:href="#DejaVuSans-5a" transform="translate(924.0625 0)"/>
    <use xlink:href="#DejaVuSans-4c" transform="translate(1005.84375 0)"/>
    <use xlink:href="#DejaVuSans-57" transform="translate(1033.625 0)"/>
    <use xlink:href="#DejaVuSans-4b" transform="translate(1072.828125 0)"/>
    <use xlink:href="#DejaVuSans-3" transform="translate(1136.203125 0)"/>
    <use xlink:href="#DejaVuSans-54" transform="translate(1167.984375 0)"/>
    <use xlink:href="#DejaVuSans-58" transform="translate(1231.46875 0)"/>
    <use xlink:href="#DejaVuSans-44" transform="translate(1294.84375 0)"/>
    <use xlink:href="#DejaVuSans-47" transform="translate(1356.125 0)"/>
    <use xlink:href="#DejaVuSans-55" transform="translate(1419.609375 0)"/>
    <use xlink:href="#DejaVuSans-44" transform="translate(1460.71875 0)"/>
    <use xlink:href="#DejaVuSans-57" transform="translate(1522 0)"/>
    <use xlink:href="#DejaVuSans-58" transform="translate(1561.203125 0)"/>
    <use xlink:href="#DejaVuSans-55" transform="translate(1624.578125 0)"/>
    <use xlink:href="#DejaVuSans-48" transform="translate(1663.484375 0)"/>
    <use xlink:href="#DejaVuSans-3" transform="translate(1725.015625 0)"/>
    <use xlink:href="#DejaVuSans-55" transform="translate(1756.796875 0)"/>
    <use xlink:href="#DejaVuSans-48" transform="translate(1795.703125 0)"/>
    <use xlink:href="#DejaVuSans-56" transform="translate(1857.234375 0)"/>
    <use xlink:href="#DejaVuSans-52" transform="translate(1909.328125 0)"/>
    <use xlink:href="#DejaVuSans-4f" transform="translate(1970.515625 0)"/>
    <use xlink:href="#DejaVuSans-58" transform="translate(1998.296875 0)"/>
    <use xlink:href="#DejaVuSans-57" transform="translate(2061.671875 0)"/>
    <use xlink:href="#DejaVuSans-4c" transform="translate(2100.875 0)"/>
    <use xlink:href="#DejaVuSans-52" transform="translate(2128.65625 0)"/>
    <use xlink:href="#DejaVuSans-51" transform="translate(2189.84375 0)"/>
    <use xlink:href="#DejaVuSans-3" transform="translate(2253.21875 0)"/>
    <use xlink:href="#DejaVuSans-b" transform="translate(2285 0)"/>
    <use xlink:href="#DejaVuSans-4a" transform="translate(2324.015625 0)"/>
    <use xlink:href="#DejaVuSans-48" transform="translate(2387.5 0)"/>
    <use xlink:href="#DejaVuSans-52" transform="translate(2449.03125 0)"/>
    <use xlink:href="#DejaVuSans-50" transform="translate(2510.21875 0)"/>
    <use xlink:href="#DejaVuSans-48" transform="translate(2607.625 0)"/>
    <use xlink:href="#DejaVuSans-57" transform="translate(2669.15625 0)"/>
    <use xlink:href="#DejaVuSans-55" transform="translate(2708.359375 0)"/>
    <use xlink:href="#DejaVuSans-4c" transform="translate(2749.46875 0)"/>
    <use xlink:href="#DejaVuSans-46" transform="translate(2777.25 0)"/>
    <use xlink:href="#DejaVuSans-3" transform="translate(2832.234375 0)"/>
    <use xlink:href="#DejaVuSans-50" transform="translate(2864.015625 0)"/>
    <use xlink:href="#DejaVuSans-48" transform="translate(2961.421875 0)"/>
    <use xlink:href="#DejaVuSans-44" transform="translate(3022.953125 0)"/>
    <use xlink:href="#DejaVuSans-51" transform="translate(3084.234375 0)"/>
    <use xlink:href="#DejaVuSans-3" transform="translate(3147.609375 0)"/>
    <use xlink:href="#DejaVuSans-44" transform="translate(3179.390625 0)"/>
    <use xlink:href="#DejaVuSans-46" transform="translate(3240.671875 0)"/>
    <use xlink:href="#DejaVuSans-55" transform="translate(3295.65625 0)"/>
    <use xlink:href="#DejaVuSans-52" transform="translate(3334.5625 0)"/>
    <use xlink:href="#DejaVuSans-56" transform="translate(3395.75 0)"/>
    <use xlink:href="#DejaVuSans-56" transform="translate(3447.84375 0)"/>
    <use xlink:href="#DejaVuSans-3" transform="translate(3499.9375 0)"/>
    <use xlink:href="#DejaVuSans-46" transform="translate(3531.71875 0)"/>
    <use xlink:href="#DejaVuSans-44" transform="translate(3586.703125 0)"/>
    <use xlink:href="#DejaVuSans-56" transform="translate(3647.984375 0)"/>
    <use xlink:href="#DejaVuSans-48" transform="translate(3700.078125 0)"/>
    <use xlink:href="#DejaVuSans-56" transform="translate(3761.609375 0)"/>
    <use xlink:href="#DejaVuSans-c" transform="translate(3813.703125 0)"/>
   </g>
  </g>
 </g>
 <defs>
  <clipPath id="pa50a6fd394">
   <rect x="44.103906" y="40.318605" width="330.751854" height="253.880134"/>
  </clipPath>
  <clipPath id="p2b9557aa49">
   <rect x="419.247666" y="40.318605" width="330.751854" height="253.880134"/>
  </clipPath>
 </defs>
</svg>
